<?xml version="1.0" encoding="UTF-8" standalone="no"?><!-- Generator: Gravit.io --><svg xmlns="http://www.w3.org/2000/svg" xmlns:xlink="http://www.w3.org/1999/xlink" style="isolation:isolate" viewBox="0 0 100 100" width="100pt" height="100pt"><defs><clipPath id="_clipPath_CJyxcwQUCrQXdBLlLQOIOk6jcw5EI0qX"><rect width="100" height="100"/></clipPath></defs><g clip-path="url(#_clipPath_CJyxcwQUCrQXdBLlLQOIOk6jcw5EI0qX)"><rect width="100" height="100" style="fill:rgb(202,53,53)"/><g><defs><filter id="2OeyZ0BSoHDr7OO7JLluyCHWPU9Pq3Ag" x="-200%" y="-200%" width="400%" height="400%" filterUnits="objectBoundingBox" color-interpolation-filters="sRGB"><feGaussianBlur xmlns="http://www.w3.org/2000/svg" in="SourceGraphic" stdDeviation="3.4348872502712227"/><feOffset xmlns="http://www.w3.org/2000/svg" dx="0" dy="2" result="pf_100_offsetBlur"/><feFlood xmlns="http://www.w3.org/2000/svg" flood-color="#000000" flood-opacity="0.65"/><feComposite xmlns="http://www.w3.org/2000/svg" in2="pf_100_offsetBlur" operator="in" result="pf_100_dropShadow"/><feBlend xmlns="http://www.w3.org/2000/svg" in="SourceGraphic" in2="pf_100_dropShadow" mode="normal"/></filter></defs><g filter="url(#2OeyZ0BSoHDr7OO7JLluyCHWPU9Pq3Ag)"><path d="M 37.834 22.187 L 77.838 22.187 C 79.721 22.187 81.25 23.716 81.25 25.599 L 81.25 74.624 C 81.25 76.507 79.721 78.036 77.838 78.036 L 37.834 78.036 C 35.95 78.036 34.421 76.507 34.421 74.624 L 34.421 25.599 C 34.421 23.716 35.95 22.187 37.834 22.187 Z" style="stroke:none;fill:#CC3636;stroke-miterlimit:10;"/></g><path d="M 37.628 21.964 L 77.632 21.964 C 79.515 21.964 81.044 23.493 81.044 25.376 L 81.044 74.401 C 81.044 76.284 79.515 77.813 77.632 77.813 L 37.628 77.813 C 35.745 77.813 34.216 76.284 34.216 74.401 L 34.216 25.376 C 34.216 23.493 35.745 21.964 37.628 21.964 Z" style="stroke:none;fill:#BF3333;stroke-miterlimit:10;"/><clipPath id="_clipPath_82brVKMTAWLSbBxH7swdTwSH8mFkXj6G"><path d="M 37.628 21.964 L 77.632 21.964 C 79.515 21.964 81.044 23.493 81.044 25.376 L 81.044 74.401 C 81.044 76.284 79.515 77.813 77.632 77.813 L 37.628 77.813 C 35.745 77.813 34.216 76.284 34.216 74.401 L 34.216 25.376 C 34.216 23.493 35.745 21.964 37.628 21.964 Z" style="stroke:none;fill:#BF3333;stroke-miterlimit:10;"/></clipPath><g clip-path="url(#_clipPath_82brVKMTAWLSbBxH7swdTwSH8mFkXj6G)"><rect x="34.216" y="62.704" width="31.201" height="15.109" transform="matrix(1,0,0,1,0,0)" fill="rgb(204,54,54)"/><rect x="65.417" y="62.704" width="15.628" height="15.109" transform="matrix(1,0,0,1,0,0)" fill="rgb(245,64,64)"/><rect x="34.216" y="49.93" width="15.628" height="13.916" transform="matrix(1,0,0,1,0,0)" fill="rgb(204,54,54)"/><rect x="49.816" y="48.292" width="15.628" height="15.554" transform="matrix(1,0,0,1,0,0)" fill="rgb(245,64,64)"/><rect x="65.417" y="48.292" width="15.628" height="15.554" transform="matrix(1,0,0,1,0,0)" fill="rgb(255,105,105)"/><rect x="34.216" y="35.964" width="15.628" height="13.916" transform="matrix(1,0,0,1,0,0)" fill="rgb(245,64,64)"/><rect x="49.816" y="33.853" width="15.628" height="16.028" transform="matrix(1,0,0,1,0,0)" fill="rgb(255,105,105)"/><rect x="65.417" y="21.964" width="15.628" height="27.917" transform="matrix(1,0,0,1,0,0)" fill="rgb(255,147,147)"/><rect x="34.216" y="21.964" width="15.628" height="13.95" transform="matrix(1,0,0,1,0,0)" fill="rgb(255,105,105)"/><rect x="49.816" y="21.964" width="31.228" height="13.95" transform="matrix(1,0,0,1,0,0)" fill="rgb(255,147,147)"/></g><text transform="matrix(0.863,0,0,0.863,27.18,59.67)" style="font-family:'Segoe UI Semibold';font-weight:400;font-size:30px;font-style:normal;fill:#ffffff;stroke:none;">P</text><defs><filter id="OwXQChvj5BkElkfGSD5YoTPOy9Fo0rKb" x="-200%" y="-200%" width="400%" height="400%" filterUnits="objectBoundingBox" color-interpolation-filters="sRGB"><feGaussianBlur xmlns="http://www.w3.org/2000/svg" in="SourceGraphic" stdDeviation="6.440413594258542"/><feOffset xmlns="http://www.w3.org/2000/svg" dx="0" dy="3" result="pf_100_offsetBlur"/><feFlood xmlns="http://www.w3.org/2000/svg" flood-color="#000000" flood-opacity="0.7"/><feComposite xmlns="http://www.w3.org/2000/svg" in2="pf_100_offsetBlur" operator="in" result="pf_100_dropShadow"/><feBlend xmlns="http://www.w3.org/2000/svg" in="SourceGraphic" in2="pf_100_dropShadow" mode="normal"/></filter></defs><g filter="url(#OwXQChvj5BkElkfGSD5YoTPOy9Fo0rKb)"><path d="M 21.519 33.48 L 48.57 33.48 C 50.098 33.48 51.339 34.721 51.339 36.25 L 51.339 63.3 C 51.339 64.828 50.098 66.069 48.57 66.069 L 21.519 66.069 C 19.991 66.069 18.75 64.828 18.75 63.3 L 18.75 36.25 C 18.75 34.721 19.991 33.48 21.519 33.48 Z" style="stroke:none;fill:#CC3636;stroke-miterlimit:10;"/></g><defs><linearGradient id="_lgradient_0" x1="0.5" y1="0" x2="0.5000000000000001" y2="1"><stop offset="1.7391304347826086%" style="stop-color:#FF4343"/><stop offset="100%" style="stop-color:#E63C3C"/></linearGradient></defs><path d="M 21.505 33.48 L 48.411 33.48 C 49.931 33.48 51.165 34.714 51.165 36.235 L 51.165 63.141 C 51.165 64.661 49.931 65.896 48.411 65.896 L 21.505 65.896 C 19.984 65.896 18.75 64.661 18.75 63.141 L 18.75 36.235 C 18.75 34.714 19.984 33.48 21.505 33.48 Z" style="stroke:none;fill:url(#_lgradient_0);stroke-miterlimit:10;"/><g><path d=" M 22.81 48.783 L 24.202 54.819 L 47.106 50.279" fill="none" vector-effect="non-scaling-stroke" stroke-width="1.712" stroke="rgb(255,255,0)" stroke-linejoin="miter" stroke-linecap="square" stroke-miterlimit="3"/><line x1="30.857" y1="36.867" x2="31.94" y2="53.219" vector-effect="non-scaling-stroke" stroke-width="1.712" stroke="rgb(255,255,0)" stroke-linejoin="miter" stroke-linecap="square" stroke-miterlimit="3"/><path d=" M 27.143 43.676 L 25.595 47.081 L 28.071 46.617 L 25.905 50.95 L 28.535 49.712" fill="none" vector-effect="non-scaling-stroke" stroke-width="1.284" stroke="rgb(255,255,0)" stroke-linejoin="miter" stroke-linecap="square" stroke-miterlimit="3"/><path d=" M 35.19 42.593 L 33.642 45.998 L 36.118 45.533 L 33.952 49.866 L 36.583 48.628" fill="none" vector-effect="non-scaling-stroke" stroke-width="1.284" stroke="rgb(255,255,0)" stroke-linejoin="miter" stroke-linecap="square" stroke-miterlimit="3"/><path d=" M 39.497 45.301 L 40.761 51.466 L 37.511 56.108 L 39.987 57.656" fill="none" vector-effect="non-scaling-stroke" stroke-width="1.712" stroke="rgb(255,255,0)" stroke-linejoin="miter" stroke-linecap="butt" stroke-miterlimit="3"/><path d=" M 42.85 54.096 L 36.583 61.679 L 42.618 60.364" fill="none" vector-effect="non-scaling-stroke" stroke-width="1.712" stroke="rgb(255,255,0)" stroke-linejoin="miter" stroke-linecap="square" stroke-miterlimit="3"/><line x1="42.773" y1="58.507" x2="45.094" y2="61.679" vector-effect="non-scaling-stroke" stroke-width="1.712" stroke="rgb(255,255,0)" stroke-linejoin="miter" stroke-linecap="square" stroke-miterlimit="3"/></g></g></g></svg>